<svg width="32" height="32" viewBox="0 0 32 32" fill="none" xmlns="http://www.w3.org/2000/svg">
<g clip-path="url(#clip0_1_4092)">
<path d="M17.1696 28.8776H19.6678L20.1675 29.8769H17.1696V28.8776Z" fill="#2E2E2E" fill-opacity="0.5"/>
<rect x="3.67859" y="28.8776" width="2.99792" height="0.999305" fill="#2E2E2E" fill-opacity="0.5"/>
<path d="M6.92689 5.60999C6.47353 5.49648 6.12702 5.04227 6.12756 4.57651C6.12841 3.82111 6.90003 3.33108 7.23444 2.72052C7.37312 2.46731 7.40004 2.22559 7.36979 1.9679C7.3494 1.79401 7.50732 1.65485 7.67806 1.69351C7.94979 1.75505 8.23005 1.93904 8.41507 2.08056C10.099 3.36901 8.77314 6.07231 6.92689 5.60999Z" fill="#2E2E2E" fill-opacity="0.5"/>
<path d="M15.1708 14.3965L12.4462 16.7057C12.4462 16.7057 14.1715 18.8934 16.1701 16.3951L15.1708 14.3965Z" fill="#2E2E2E" fill-opacity="0.5"/>
<path d="M25.6629 14.3967L28.2512 16.7059C28.2512 16.7059 26.6621 18.394 24.8347 16.7059L25.6629 14.3967Z" fill="#2E2E2E" fill-opacity="0.5"/>
<path d="M20.0918 10.7739C24.4478 10.7739 25.1638 13.9441 28.3753 13.9441C30.4516 13.9441 31.3394 12.2603 30.7048 10.8592C30.3798 10.1415 29.8564 9.87748 29.2673 9.61247C29.1571 9.56285 29.0509 9.68755 29.1166 9.78902C29.1827 9.89103 29.2414 9.99915 29.2884 10.1213C29.7861 11.4131 28.8526 13.4911 25.6093 10.2737C24.9245 9.59444 24.2498 8.87219 23.4494 8.42966C22.4624 7.8839 21.1043 7.82074 20.3498 8.94346C19.5954 7.82068 18.2372 7.8839 17.2502 8.42966C16.4499 8.87219 15.7751 9.59438 15.0903 10.2737C11.8471 13.491 10.9136 11.4131 11.4112 10.1213C11.4583 9.99915 11.517 9.89103 11.583 9.78902C11.6488 9.68755 11.5426 9.56291 11.4323 9.61247C10.8433 9.87748 10.3199 10.1415 9.99485 10.8592C9.36028 12.2603 10.2481 13.9441 12.3243 13.9441C15.5359 13.9441 15.7359 10.7739 20.0918 10.7739Z" fill="#2E2E2E" fill-opacity="0.5"/>
<path d="M14.9701 22.4999C13.8322 22.7576 10.4279 23.467 9.28323 23.1546C10.0048 21.4419 9.60554 19.4739 9.06052 17.9882C8.97424 17.7529 8.71346 17.6322 8.47822 17.7185C8.24291 17.8048 8.12215 18.0655 8.20849 18.3008C8.94598 20.3112 8.96419 21.9467 8.26554 23.1762C8.26131 23.1828 8.25683 23.1892 8.2529 23.1961C7.43064 24.6303 5.87844 25.0288 5.86429 25.0323C5.65718 25.0821 5.51263 25.2694 5.51681 25.4824L5.56812 28.0952C5.5692 28.1509 5.58058 28.2059 5.60163 28.2576L6.16621 29.642H4.39674C4.36002 29.642 4.32771 29.6188 4.31458 29.5833C3.89395 28.4459 3.29204 25.5484 3.13213 24.7612C3.47289 24.2838 4.29183 22.9191 4.07631 21.0797C4.01169 20.5283 3.78437 19.8292 3.52118 19.0197C2.7498 16.6473 1.69339 13.3981 3.93521 11.3064C4.05344 11.196 5.6378 10.1028 5.76365 9.99865C5.95672 9.83885 5.98377 9.55285 5.82397 9.35978C5.66424 9.1667 5.37823 9.13966 5.1851 9.29945C5.04546 9.41496 3.44742 10.5203 3.31606 10.6429C2.50252 11.4019 2.05042 12.2756 1.83696 13.1929C1.67517 13.0498 1.54261 12.8766 1.4556 12.6871C1.16258 12.0495 1.25479 11.1991 1.69605 10.4679C2.8667 8.53062 5.59655 8.06201 7.18045 6.10819C8.12789 6.1791 8.95633 5.61931 9.37611 4.74864C9.81477 3.83883 9.77175 2.54929 8.68708 1.71929C8.36356 1.4717 8.05656 1.31384 7.77461 1.25001C7.55013 1.19919 7.31435 1.26042 7.14372 1.41374C6.97407 1.56627 6.88869 1.79286 6.91532 2.01981C6.93801 2.21325 6.91405 2.35283 6.83261 2.50155C6.73798 2.67442 6.58569 2.85176 6.42444 3.03944C6.07115 3.45088 5.67073 3.91713 5.67001 4.57493C5.66946 5.04354 5.90483 5.49116 6.26598 5.77668C4.76407 7.37945 2.19116 7.89362 0.919165 9.99865C0.324645 10.9837 0.214163 12.1591 0.63086 13.0659C0.845652 13.5336 1.23089 13.9384 1.69375 14.1951C1.58393 15.9953 2.19073 17.8627 2.65813 19.3002C2.90639 20.0638 3.12082 20.7232 3.17491 21.1853C3.39194 23.0374 2.31187 24.3428 2.30194 24.3545C2.21161 24.4601 2.1747 24.6012 2.20163 24.7376C2.232 24.8911 2.95195 28.5151 3.46345 29.8983C3.60776 30.2877 3.98283 30.5494 4.3968 30.5494H6.27711C6.868 30.5494 7.27151 29.9497 7.04849 29.4019L6.47393 27.993L6.43091 25.8024C7.37751 25.4537 8.25417 24.8145 8.83731 23.9697C10.2619 24.4188 13.8886 23.6754 15.1706 23.3851C15.4151 23.3298 15.5683 23.0867 15.513 22.8423C15.4575 22.5978 15.2145 22.4442 14.9701 22.4999ZM7.62855 2.93749C7.75065 2.71453 7.81629 2.48715 7.82876 2.23848C7.9252 2.29063 8.02969 2.35907 8.13546 2.43996C8.86127 2.99533 8.81698 3.81838 8.55857 4.35439C8.32121 4.8469 7.77939 5.35545 7.0333 5.16879C6.78596 5.10689 6.57722 4.83535 6.57752 4.57596C6.57806 4.04098 7.27592 3.58144 7.62855 2.93749Z" fill="#2E2E2E"/>
<path d="M23.1421 14.2104C22.8915 14.2104 22.6884 14.4135 22.6884 14.6641V14.9017C22.6884 15.1524 22.8915 15.3555 23.1421 15.3555C23.3928 15.3555 23.5959 15.1524 23.5959 14.9017V14.6641C23.5959 14.4135 23.3928 14.2104 23.1421 14.2104Z" fill="#2E2E2E"/>
<path d="M17.8072 14.2104C17.5566 14.2104 17.3534 14.4135 17.3534 14.6641V14.9017C17.3534 15.1524 17.5566 15.3555 17.8072 15.3555C18.0578 15.3555 18.261 15.1524 18.261 14.9017V14.6641C18.261 14.4135 18.0578 14.2104 17.8072 14.2104Z" fill="#2E2E2E"/>
<path d="M31.1146 10.6745C30.7335 9.83308 30.1352 9.50938 29.4498 9.20117C29.2156 9.09577 28.9457 9.15597 28.7784 9.35079C28.6108 9.54598 28.5922 9.82225 28.7323 10.0384C28.7885 10.1252 28.8295 10.2042 28.8614 10.2869C29.0386 10.7467 28.9625 11.2827 28.6954 11.4571C28.1368 11.8222 26.8541 10.8755 25.9254 9.95415C25.8468 9.87616 25.7684 9.79768 25.6898 9.71909C25.0702 9.09891 24.4295 8.45768 23.6655 8.03512C23.0587 7.69962 22.3832 7.54914 21.7633 7.61201C21.2124 7.66767 20.7312 7.88458 20.3464 8.24664C19.9615 7.88458 19.4804 7.66767 18.9294 7.61201C18.3096 7.5492 17.634 7.69956 17.0272 8.03512C16.8607 8.12721 16.7003 8.23025 16.5443 8.34061C13.125 7.15114 8.30646 7.71238 5.12494 9.35079C4.9021 9.46551 4.81455 9.73918 4.92926 9.96195C5.00979 10.1183 5.16856 10.2081 5.33307 10.2081C5.40302 10.2081 5.91545 9.91682 5.98189 9.88263C7.51097 9.09522 9.34505 8.63042 11.2859 8.53864C12.8232 8.46561 14.3646 8.63902 15.7109 9.02812C15.3901 9.32569 15.0888 9.63493 14.7674 9.95403C13.8386 10.8753 12.5559 11.8214 11.9973 11.457C11.7302 11.2825 11.6542 10.7466 11.8313 10.2869C11.8632 10.2041 11.9043 10.1251 11.9606 10.0383C12.1005 9.82231 12.082 9.54598 11.9144 9.35079C11.7472 9.15579 11.4773 9.09565 11.2428 9.20111C10.5575 9.50944 9.95923 9.83302 9.57817 10.6744C9.20788 11.4919 9.26651 12.4136 9.73494 13.1399C10.2515 13.9409 11.194 14.4003 12.321 14.4003C13.3701 14.4003 14.1367 14.0884 14.7934 13.6705C14.7878 13.845 14.7913 14.0228 14.8045 14.2037L12.1579 16.3478C11.9495 16.5167 11.9327 16.8279 12.1197 17.0183C12.5945 17.5024 13.4249 17.924 14.2159 17.9145C14.7494 17.9079 15.2526 17.7274 15.7181 17.378C16.1776 18.2457 16.8057 19.025 17.6193 19.7447C17.6362 20.0902 17.7334 20.3591 17.9125 20.5435C18.328 20.9717 19.0906 21.2464 19.9934 21.3034L19.3834 22.7897C19.361 22.8443 19.3494 22.9029 19.3494 22.962V28.0341C19.3494 28.0803 19.3565 28.1262 19.3703 28.1703L19.7974 29.5273H17.8047C17.7632 29.5273 17.7274 29.4981 17.7196 29.4572C17.2179 26.8713 16.5861 22.9961 16.5101 20.3502C16.5029 20.0997 16.294 19.9034 16.0435 19.9097C15.7929 19.9169 15.5957 20.1258 15.6029 20.3763C15.6198 20.9662 15.6641 21.6372 15.7347 22.3812C15.3979 22.4263 15.0496 22.484 14.6799 22.5568C14.434 22.6051 14.2738 22.8437 14.3222 23.0896C14.3705 23.3355 14.6093 23.4953 14.855 23.4473C15.1967 23.3802 15.5187 23.3261 15.829 23.284C16.0583 25.2988 16.4464 27.6599 16.8285 29.6297C16.9185 30.0963 17.3291 30.435 17.8047 30.435H19.8982C20.166 30.435 20.4106 30.3112 20.5693 30.0954C20.7259 29.8824 20.7725 29.6047 20.6934 29.3512L20.2569 27.9644V23.0516L20.9851 21.2774C21.7617 21.1854 22.4093 20.9257 22.7801 20.5436C22.9592 20.3591 23.0565 20.0901 23.0733 19.7445C23.8868 19.0248 24.5148 18.2455 24.9742 17.378C25.4269 17.7178 25.9381 17.9148 26.5065 17.9148C27.6787 17.9148 28.5365 17.0554 28.5726 17.0184C28.6622 16.9272 28.7092 16.8024 28.7019 16.6747C28.6947 16.5471 28.6339 16.4284 28.5345 16.3479L25.8877 14.2038C25.8994 14.0442 25.9037 13.887 25.9007 13.7323C26.5943 14.1183 27.3777 14.4004 28.3716 14.4004C30.7256 14.4004 31.9059 12.4217 31.1146 10.6745ZM13.1754 16.6915L14.9593 15.2464C15.0525 15.6923 15.1759 16.117 15.3307 16.523C14.6868 17.0917 13.9636 17.175 13.1754 16.6915ZM22.129 19.9115C21.8411 20.2081 21.1247 20.4074 20.3463 20.4074C19.5679 20.4074 18.8516 20.2081 18.5675 19.9158C18.4594 19.7627 18.5653 19.199 18.6134 19.0133C18.7447 18.5064 18.952 18.1591 19.0572 18.0744C19.6355 17.6087 21.0572 17.6089 21.6355 18.0744C21.8298 18.2308 22.1463 18.9901 22.1674 19.5462C22.1752 19.753 22.1524 19.8777 22.129 19.9115ZM25.3616 16.5229C25.5165 16.117 25.6399 15.6923 25.7331 15.2464L27.5168 16.6914C26.7661 17.1513 26.0386 17.1208 25.3616 16.5229ZM24.3929 16.5039C24.0509 17.2884 23.5665 17.9886 22.9185 18.6431C22.7661 18.1231 22.5135 17.6162 22.2046 17.3675C21.3015 16.6405 19.3912 16.6404 18.4881 17.3675C18.1791 17.6162 17.9265 18.1233 17.774 18.6434C17.1262 17.9892 16.6419 17.2892 16.2999 16.5049C16.2899 16.4714 16.2762 16.4387 16.2583 16.4078C16.0032 15.7968 15.8321 15.1348 15.7359 14.4034C15.6654 13.8675 15.6923 13.3672 15.8134 12.9128C15.8205 12.9071 15.8277 12.9014 15.8347 12.8957C16.8523 12.0769 17.9045 11.2303 20.0882 11.2303C22.2988 11.2303 23.4001 12.0348 24.9253 13.1065C25.2273 14.5944 24.3948 16.4976 24.3929 16.5039ZM28.3717 13.4928C25.3963 13.4928 24.5843 10.3227 20.0883 10.3227C15.5943 10.3227 15.2566 13.4928 12.321 13.4928C10.6034 13.4928 9.89516 12.1744 10.4049 11.0489C10.5228 10.7886 10.6713 10.6043 10.8542 10.4557C10.8187 10.6934 10.8196 10.9348 10.8586 11.1641C10.9367 11.6235 11.1649 11.9973 11.5011 12.217C13.3721 13.439 15.9269 9.68061 17.4664 8.82936C18.077 8.49181 19.2914 8.18959 19.9698 9.19911C20.054 9.3246 20.1953 9.3998 20.3464 9.3998C20.4975 9.3998 20.6388 9.32454 20.723 9.19911C21.4014 8.18971 22.6158 8.49181 23.2263 8.82936C23.9779 9.24491 24.6376 9.95481 25.2862 10.5984C27.3808 12.6763 28.5662 12.6253 29.1917 12.217C29.5279 11.9974 29.7561 11.6235 29.8342 11.1641C29.8732 10.9348 29.8741 10.6935 29.8385 10.4558C30.0214 10.6043 30.1698 10.7886 30.2878 11.049C30.7933 12.165 30.0993 13.4928 28.3717 13.4928Z" fill="#2E2E2E"/>
<path d="M3.56643 28.6277C3.42846 28.6277 3.31661 28.7396 3.31661 28.8776C3.31661 29.0155 3.42846 29.1274 3.56643 29.1274L3.56643 28.6277ZM6.0647 28.6277L3.56643 28.6277L3.56643 29.1274L6.0647 29.1274L6.0647 28.6277Z" fill="#2E2E2E"/>
<path d="M17.557 28.6277C17.4191 28.6277 17.3072 28.7396 17.3072 28.8776C17.3072 29.0155 17.4191 29.1274 17.557 29.1274L17.557 28.6277ZM20.0553 28.6277L17.557 28.6277L17.557 29.1274L20.0553 29.1274L20.0553 28.6277Z" fill="#2E2E2E"/>
<path d="M9.94434 25.2411C9.12644 25.27 8.44696 24.4566 8.43005 23.4274L8.85395 23.4124C8.86522 24.0985 9.34978 24.6397 9.93412 24.619C10.5185 24.5983 10.9847 24.0235 10.9734 23.3374L11.3973 23.3224C11.4142 24.3516 10.7622 25.2122 9.94434 25.2411Z" fill="#2E2E2E"/>
<path d="M9.30842 25.1539C9.30649 25.0368 9.39982 24.9385 9.51688 24.9343C9.63393 24.9302 9.73039 25.0218 9.73231 25.1389L9.74067 25.6479C9.74259 25.765 9.64926 25.8633 9.53221 25.8674C9.41515 25.8716 9.3187 25.78 9.31678 25.6629L9.30842 25.1539Z" fill="#2E2E2E"/>
<path d="M10.1551 25.1348C10.1532 25.0176 10.2465 24.9193 10.3636 24.9152C10.4806 24.9111 10.5771 25.0026 10.579 25.1198L10.5874 25.6288C10.5893 25.7459 10.4959 25.8442 10.3789 25.8483C10.2618 25.8524 10.1654 25.7609 10.1635 25.6438L10.1551 25.1348Z" fill="#2E2E2E"/>
</g>
<defs>
<clipPath id="clip0_1_4092">
<rect width="30.9785" height="30.9785" fill="white" transform="translate(0.381348 0.402557)"/>
</clipPath>
</defs>
</svg>
