<svg width="33" height="32" viewBox="0 0 33 32" fill="none" xmlns="http://www.w3.org/2000/svg">
<g clip-path="url(#clip0_1_4148)">
<g clip-path="url(#clip1_1_4148)">
<path d="M30.7918 24.8805H32.3324V23.3815C32.3324 22.004 31.1805 20.8833 29.7647 20.8833H29.2512V13.3497C29.2512 12.5867 28.9 11.8756 28.2876 11.3989L27.0535 10.4383C26.6 10.0853 26.0304 9.89087 25.4495 9.89087H24.4384C21.6328 9.89087 18.8784 9.14853 16.4727 7.74415C15.5189 7.18727 14.4267 6.89291 13.3143 6.89291C12.0293 6.89291 10.7753 7.28922 9.73592 8.01431C9.73623 7.98956 9.7371 7.96482 9.7371 7.94013V7.92779C9.7371 6.16044 9.02974 4.49886 7.74523 3.24901C7.51104 3.02115 7.19974 2.89572 6.86854 2.89572C6.18494 2.89572 5.62881 3.43682 5.62881 4.10195C5.62881 4.39237 5.71637 4.67366 5.88191 4.91531L6.31236 5.54353C6.53703 5.87147 6.65587 6.25326 6.65587 6.64738C6.65587 7.27046 6.34998 7.86553 5.83776 8.23933L4.94403 8.89157H4.60169C4.33703 8.89157 4.07517 8.94155 3.8314 9.03751C3.58751 8.94149 3.32571 8.89157 3.06111 8.89157C2.0672 8.89157 1.21607 9.59772 1.04064 10.5319C0.690661 10.8996 0.493408 11.3844 0.493408 11.8895C0.493408 12.6221 0.900972 13.2636 1.50685 13.6116C1.46537 14.1398 1.31954 14.6608 1.07621 15.1343L0.738108 15.7922C0.578043 16.1038 0.493408 16.4525 0.493408 16.8007C0.493408 17.2853 0.658013 17.7657 0.956877 18.1535L1.50877 18.8695C1.99842 19.5048 2.77798 19.884 3.59404 19.884C3.99657 19.884 4.39965 19.7914 4.75977 19.6162L6.83055 18.6089C7.01288 19.235 7.33158 19.8056 7.75307 20.2888L7.46241 20.5151C6.9676 20.9002 6.63783 21.4472 6.53367 22.0552L6.2128 23.9287C5.29239 24.1263 4.60169 24.9259 4.60169 25.8799C4.60169 26.4309 5.06249 26.8792 5.62875 26.8792H8.70992C9.27624 26.8792 9.73697 26.4308 9.73697 25.8799V23.8899C9.73697 23.2241 10.1965 22.6315 10.8544 22.4486L11.4228 22.2906C11.6565 22.4129 11.8997 22.5174 12.1499 22.6028C12.5879 23.3943 12.8182 24.2765 12.8182 25.1832V25.8799C11.6856 25.8799 10.7641 26.7764 10.7641 27.8785V28.8778C10.7641 28.8778 13.894 28.8778 15.8994 28.8778C22.3169 28.8778 32.3324 28.8778 32.3324 28.8778V27.8785H26.17V26.4975L26.9802 24.9209C27.1221 24.6448 27.1971 24.3358 27.1971 24.027V22.323C27.1971 21.468 27.4275 20.6236 27.8635 19.8812L28.2241 19.2672V22.3823C28.2241 23.7597 29.376 24.8805 30.7918 24.8805ZM29.7647 21.8826C30.6143 21.8826 31.3053 22.555 31.3053 23.3815V23.8812H30.7918C29.9424 23.8812 29.2512 23.2087 29.2512 22.3822V21.8826H29.7647ZM10.2505 10.8902C10.7456 10.8902 11.2126 11.0669 11.5756 11.3898C11.2126 11.7127 10.7456 11.8895 10.2505 11.8895C9.75544 11.8895 9.28843 11.7127 8.92545 11.3898C9.28843 11.067 9.75544 10.8902 10.2505 10.8902ZM6.45389 9.0389C7.22344 8.47735 7.68286 7.58333 7.68286 6.64744C7.68286 6.05534 7.50439 5.48194 7.16685 4.98931L6.7364 4.36109C6.68373 4.28413 6.65587 4.19458 6.65587 4.10201C6.65587 3.98789 6.75126 3.89508 6.86854 3.89508C6.92538 3.89508 6.9788 3.91662 7.01897 3.95564C8.10952 5.01672 8.71004 6.42739 8.71004 7.92779V7.94013C8.71004 8.81225 8.49818 9.68551 8.09733 10.4656L7.88751 10.8739C7.00324 10.7807 6.22225 10.2897 5.77116 9.53728L6.45389 9.0389ZM5.62875 12.8888C5.62875 13.4398 5.16796 13.8881 4.60169 13.8881C4.60169 13.3371 5.06243 12.8888 5.62875 12.8888ZM1.86678 11.1416L2.02124 11.0083L2.03785 10.8081C2.08057 10.2938 2.53005 9.89087 3.06105 9.89087C3.2412 9.89087 3.41861 9.93715 3.5742 10.0248L3.83134 10.1695L4.08848 10.0248C4.24407 9.93715 4.42148 9.89087 4.60163 9.89087H4.79919C5.01454 10.2905 5.29562 10.6408 5.62651 10.9319C5.60381 11.4635 5.15347 11.8895 4.60163 11.8895C4.47148 11.8895 4.34418 11.8659 4.22323 11.8192L3.68912 11.6131L3.53832 12.1527C3.41725 12.5861 3.00975 12.8889 2.54752 12.8889C1.9812 12.8889 1.52046 12.4405 1.52046 11.8896C1.52046 11.6041 1.6467 11.3315 1.86678 11.1416ZM8.70992 25.8798H5.62875C5.62875 25.3287 6.08954 24.8805 6.65581 24.8805H8.70992V25.8798ZM8.70992 23.8812H7.26199L7.54661 22.2195C7.60911 21.8546 7.80705 21.5264 8.10386 21.2954L8.50701 20.9816C8.95611 21.3101 9.46815 21.56 10.0209 21.7125C9.23004 22.1468 8.71315 22.9724 8.70992 23.8812ZM11.7911 27.8784C11.7911 27.3274 12.2519 26.8791 12.8181 26.8791H14.8723V27.8784H11.7911ZM15.8994 27.8784V26.0369C15.8994 25.6844 15.985 25.3315 16.1469 25.0163L16.5704 24.1924C16.7792 23.7859 16.8989 23.3359 16.9217 22.8819H17.0843C18.0675 22.8819 19.0288 22.7018 19.9416 22.3465C20.5918 22.0934 21.2724 21.9431 21.9684 21.8976L22.8042 23.1173C22.9904 23.3891 23.0889 23.7055 23.0889 24.0321C23.0889 24.2096 23.0596 24.385 23.0019 24.5535L22.5207 25.958C21.6636 26.1985 21.0347 26.9681 21.0347 27.8783L15.8994 27.8784ZM25.1429 27.8784H22.0618C22.0618 27.3274 22.5226 26.8791 23.0888 26.8791H25.1431L25.1429 27.8784ZM27.5577 18.3878L26.9719 19.3854C26.4473 20.2784 26.1701 21.2943 26.1701 22.3229V24.0269C26.1701 24.1813 26.1326 24.3358 26.0617 24.4738L25.3392 25.8798H23.6301L23.9762 24.8696C24.0689 24.599 24.1159 24.3172 24.1159 24.0321C24.1159 23.5075 23.9578 22.9995 23.6587 22.563L22.3205 20.61C22.1513 20.3629 22.0618 20.0754 22.0618 19.7786V16.8861H21.0347V19.7786C21.0347 20.1927 21.1405 20.5953 21.3399 20.9571C20.7312 21.0406 20.1354 21.1949 19.5602 21.4187C18.7693 21.7265 17.9363 21.8826 17.0844 21.8826H16.9328C16.9543 21.5831 17.0362 21.2874 17.1741 21.0191L17.5975 20.1952C17.8305 19.7419 17.9536 19.2344 17.9536 18.7277C17.9536 18.0777 17.7578 17.4483 17.3872 16.9074L16.8402 16.1093L15.9857 16.6636L16.5326 17.4617C16.7904 17.8378 16.9266 18.2756 16.9266 18.7277C16.9266 19.0802 16.8409 19.433 16.679 19.7483L16.2556 20.5721C16.0226 21.0254 15.8994 21.5328 15.8994 22.0397V22.7249C15.8994 23.0774 15.8138 23.4303 15.6519 23.7455L15.2285 24.5694C15.0196 24.9759 14.8999 25.4258 14.8771 25.8799H13.8453V25.1832C13.8453 23.9057 13.4603 22.6685 12.732 21.6055C12.1165 20.7072 11.7911 19.6617 11.7911 18.5821V17.8854H10.7641V18.5821C10.7641 19.4116 10.9274 20.2238 11.2407 20.9827C10.3062 20.2425 9.73704 19.1215 9.73704 17.8854H8.70998C8.70998 18.7633 8.94025 19.6055 9.3799 20.3545C8.56024 19.8564 7.95853 19.0455 7.75686 18.0937C8.35478 17.626 8.70998 16.9198 8.70998 16.1505V14.8874H7.68292V16.1505C7.68292 16.7219 7.35664 17.2356 6.83129 17.4912L4.30041 18.7225C4.0822 18.8286 3.83799 18.8847 3.59404 18.8847C3.27478 18.8847 2.96503 18.7884 2.7056 18.6169L3.29082 18.3323C4.05185 17.962 4.68055 17.3503 5.06106 16.6099L4.14239 16.1629C3.86057 16.7112 3.39498 17.1642 2.83146 17.4385L2.00097 17.8425L1.7786 17.5539C1.61213 17.338 1.52046 17.0706 1.52046 16.8007C1.52046 16.6068 1.5676 16.4127 1.65665 16.2393L1.99475 15.5813C2.26675 15.0522 2.44218 14.4754 2.51245 13.8873C2.5242 13.8875 2.53577 13.8881 2.54752 13.8881C2.92567 13.8881 3.28541 13.7866 3.59528 13.6074C3.58198 13.6992 3.57464 13.7928 3.57464 13.8881V14.8874H4.60169C5.73434 14.8874 6.65581 13.9909 6.65581 12.8888V11.8895H6.37945C6.44693 11.7763 6.50326 11.6561 6.54711 11.5303C6.98806 11.7337 7.47193 11.8555 7.97706 11.883L8.13414 12.0358C8.69935 12.5859 9.45105 12.8888 10.2506 12.8888C11.0501 12.8888 11.8018 12.5859 12.367 12.0359L13.031 11.3898L12.367 10.7438C11.8018 10.1938 11.0501 9.89081 10.2506 9.89081C9.95692 9.89081 9.66988 9.93201 9.39607 10.011C9.45975 9.82159 9.51454 9.62936 9.56062 9.43514L10.0419 9.04495C10.9587 8.30159 12.1209 7.89221 13.3143 7.89221C14.2405 7.89221 15.15 8.13732 15.9443 8.60103C18.5095 10.0985 21.4467 10.8901 24.4384 10.8901H25.4495C25.798 10.8901 26.1398 11.0067 26.412 11.2186L27.646 12.1792C28.0135 12.4652 28.2242 12.8918 28.2242 13.3497V15.9459C28.2241 16.8011 27.9937 17.6453 27.5577 18.3878Z" fill="#336AA7"/>
<path d="M25.2942 13.7379C25.8595 14.2878 26.1709 15.0192 26.1709 15.7971V16.8821H27.1979V15.7971C27.1979 14.7522 26.7797 13.77 26.0205 13.0312L25.2942 13.7379Z" fill="#336AA7"/>
<path d="M22.8046 11.9444L22.3453 12.8382C23.4373 13.3693 24.1156 14.4373 24.1156 15.6251V15.8888H25.1426V15.6251C25.1426 14.0563 24.2468 12.6459 22.8046 11.9444Z" fill="#336AA7"/>
<path d="M6.52032 4.39352C8.51893 7.19157 6.35377 8.89039 5.02136 9.39005C5.68757 10.0566 7.21983 11.3894 8.01928 11.3887C11.5168 5.39282 5.52102 2.39513 6.52032 4.39352Z" fill="#336AA7" fill-opacity="0.5"/>
<path d="M6.02067 24.3784L5.02136 25.8773L5.52102 26.377H9.01858V25.3777V24.3784H8.01928H6.02067Z" fill="#336AA7" fill-opacity="0.5"/>
<path d="M12.0165 26.3788L11.0172 27.3781L11.5169 27.8778H15.0144V26.8785V25.8792H14.0151L12.0165 26.3788Z" fill="#336AA7" fill-opacity="0.5"/>
<path d="M23.0095 25.8792L21.5105 27.8778H22.5098H26.0074V26.8785V25.8792H25.0081H23.0095Z" fill="#336AA7" fill-opacity="0.5"/>
<path d="M29.0059 21.3807C28.5064 23.3793 30.5046 24.3786 31.5041 24.3786C32.5036 24.3786 31.5042 21.3807 29.0059 21.3807Z" fill="#336AA7" fill-opacity="0.5"/>
</g>
<path fill-rule="evenodd" clip-rule="evenodd" d="M15.9133 28.056C15.9133 28.2355 15.7678 28.381 15.5883 28.381H11.0783C10.8988 28.381 10.7533 28.2355 10.7533 28.056C10.7533 27.8766 10.8988 27.731 11.0783 27.731H15.5883C15.7678 27.731 15.9133 27.8765 15.9133 28.056Z" fill="#336AA7"/>
<path fill-rule="evenodd" clip-rule="evenodd" d="M26.1771 27.8784C26.2949 28.3896 25.9066 28.8777 25.3819 28.8777H22.0616C21.5962 28.8777 21.1924 28.5563 21.0879 28.1028L21.0361 27.8784H26.1771Z" fill="#336AA7"/>
</g>
<defs>
<clipPath id="clip0_1_4148">
<rect width="31.839" height="30.9785" fill="white" transform="translate(0.494507 0.402557)"/>
</clipPath>
<clipPath id="clip1_1_4148">
<rect width="32.9771" height="24.9826" fill="white" transform="translate(0.425293 2.89792)"/>
</clipPath>
</defs>
</svg>
