<svg width="27" height="27" viewBox="0 0 27 27" fill="none" xmlns="http://www.w3.org/2000/svg">
<g clip-path="url(#clip0_1_20199)">
<path d="M16.299 15.2999L13.9806 13.5411L11.6722 15.2999L12.5516 12.4519L10.2332 10.6132H13.0712L13.9806 7.80513L14.8899 10.6132H17.728L15.4196 12.4519L16.299 15.2999ZM5.98612 11.6125C5.98612 7.19556 9.56363 3.61804 13.9806 3.61804C18.3975 3.61804 21.975 7.19556 21.975 11.6125C21.975 13.6411 21.2155 15.4798 19.9764 16.8888V24.6035L13.9806 22.6048L7.98473 24.6035V16.8888C6.74559 15.4798 5.98612 13.6411 5.98612 11.6125ZM13.9806 5.61665C10.6729 5.61665 7.98473 8.30479 7.98473 11.6125C7.98473 14.9202 10.6729 17.6083 13.9806 17.6083C17.2883 17.6083 19.9764 14.9202 19.9764 11.6125C19.9764 8.30479 17.2883 5.61665 13.9806 5.61665Z" fill="white"/>
</g>
<defs>
<clipPath id="clip0_1_20199">
<rect width="23.9833" height="23.9833" fill="white" transform="matrix(-1 0 0 1 25.9722 1.61945)"/>
</clipPath>
</defs>
</svg>
