<svg width="32" height="32" viewBox="0 0 32 32" fill="none" xmlns="http://www.w3.org/2000/svg">
<g clip-path="url(#clip0_1_4038)">
<path d="M18.762 27.1524L19.7004 26.8709L20.711 27.1524L21.5416 28.6578C21.6083 28.7788 21.5209 28.927 21.3827 28.927H20.4405L19.4667 28.8414C19.0657 28.8414 18.7406 28.5163 18.7406 28.1153L18.762 27.1524Z" fill="#ECA647" fill-opacity="0.5"/>
<path d="M2.41571 27.1524L3.21165 26.8709L4.36479 27.1524L5.19536 28.6578C5.2621 28.7788 5.1746 28.927 5.03641 28.927H4.09421L3.12042 28.8414C2.71945 28.8414 2.39435 28.5163 2.39435 28.1153L2.41571 27.1524Z" fill="#ECA647" fill-opacity="0.5"/>
<path d="M13.1214 3.12278C13.1725 3.21118 13.1776 3.31882 13.1352 3.41169L12.6152 4.55042C12.5242 4.7496 12.3814 4.92072 12.2015 5.04566C11.6202 5.44954 10.8178 5.27014 10.4639 4.65715C10.11 4.0441 10.3557 3.25952 10.9962 2.95808C11.1944 2.86484 11.4139 2.8266 11.6319 2.84741L12.8781 2.96643C12.9797 2.97611 13.0703 3.03438 13.1214 3.12278Z" fill="#ECA647" fill-opacity="0.5"/>
<path d="M23.8482 6.59605L21.7254 4.81481C21.6993 4.79297 21.6597 4.79642 21.6387 4.82322C21.0537 5.57138 21.1629 6.65432 21.8961 7.26955L22.71 7.95248L23.8482 7.82409V6.59605Z" fill="#ECA647" fill-opacity="0.5"/>
<path d="M26.2219 6.59599L28.3446 4.81481C28.3707 4.79297 28.4103 4.79642 28.4312 4.82322C29.0163 5.57138 28.9071 6.65432 28.1739 7.26955L27.36 7.95248L26.2218 7.6874V6.59599H26.2219Z" fill="#ECA647" fill-opacity="0.5"/>
<path d="M22.199 10.3881L23.698 14.385C23.698 14.385 23.2122 15.2906 23.1983 15.3843L23.0895 15.9195C21.3808 15.9195 21.5266 15.2061 20.6184 14.854C19.4029 14.3826 18.7917 15.217 17.5598 14.6374C16.9015 14.3282 16.5736 13.8532 16.5095 13.757C15.9643 12.9426 16.1059 12.0513 16.1385 11.8722C16.3261 10.843 17.1738 9.98988 18.3035 9.65225C18.8238 9.5984 19.6855 10.4834 20.2004 10.3878C20.6967 10.2954 21.1997 9.88816 21.3572 9.33629C21.4829 9.34416 21.7191 9.68257 21.8443 9.69818C22.0952 9.72946 21.9526 8.82571 22.199 8.88803V10.3881Z" fill="#ECA647" fill-opacity="0.5"/>
<path d="M27.3028 12.6404L26.5567 14.4949H24.0494L22.3751 10.6009C22.0853 9.88209 22.2099 9.06283 22.7 8.46261L24.112 6.76838L25.3618 6.58795H26.2221L27.3258 7.94026L27.3028 12.6404Z" fill="#F5F8F9"/>
<path d="M8.38337 11.7171C7.9683 12.9562 6.52341 13.5123 5.54079 13.3392C4.60234 13.1735 4.43656 12.4038 3.20042 11.9875C3.00468 11.9215 2.81282 11.8746 2.62797 11.8426C2.07337 11.7467 1.84042 11.5071 1.49463 11.5588C1.58418 11.3004 1.64099 11.356 1.77653 11.1146C2.18555 10.3879 2.64449 9.95804 3.3397 9.55144C4.03431 9.14484 4.72118 8.78834 5.55495 8.78834C5.80993 8.78834 6.01861 8.76795 6.35769 8.77497C6.37542 8.77703 6.39314 8.77914 6.41087 8.78132C6.68073 8.8146 6.94877 8.86361 7.21318 8.92896C7.33662 8.95981 7.46065 8.98946 7.58469 9.01851C8.36704 9.747 8.68772 10.8083 8.38337 11.7171Z" fill="#ECA647" fill-opacity="0.5"/>
<path d="M14.1916 17.4213C14.2481 17.3081 14.9568 15.8244 14.0469 14.5453C13.5579 13.8578 12.7265 13.4054 11.8589 13.4356C11.6826 13.4418 10.5545 13.481 10.0978 14.3316C10.0525 14.4161 9.79251 14.9207 9.96907 15.4645C10.1924 16.1524 10.8347 16.0427 11.24 16.7678C11.6349 17.4743 11.2417 17.9662 11.6787 18.3791C12.1262 18.802 12.8856 18.6138 12.9557 18.5954C13.7037 18.3992 14.0505 17.7041 14.1916 17.4213Z" fill="#ECA647" fill-opacity="0.5"/>
<path d="M7.44976 17.7979L6.94441 18.9647L6.14343 19.2621C6.05691 19.4588 6.00548 19.63 5.96131 19.846L5.6975 21.1354C5.64788 21.378 5.57044 21.6111 5.46395 21.8338C4.26229 20.8578 3.62819 19.5362 3.91378 18.3854C3.96158 18.193 4.14975 17.4348 4.82016 17.0875C5.5656 16.7021 6.63413 16.9647 7.44976 17.7979Z" fill="#ECA647" fill-opacity="0.5"/>
<path d="M19.1974 20.9245C19.1532 22.1782 18.0508 22.8613 17.9576 22.9164L17.6799 22.007C17.5075 21.4425 17.3695 20.8689 17.2642 20.2898L17.0507 19.4724L17.0507 18.5497C17.2043 18.5636 18.1234 18.6628 18.7339 19.4724C18.8374 19.6085 19.2246 20.1543 19.1974 20.9245Z" fill="#ECA647" fill-opacity="0.5"/>
<path d="M6.42588 6.03725C6.81923 6.10513 7.1836 6.13877 7.53823 6.13877C7.76283 6.13877 7.98355 6.12528 8.20507 6.09848C8.97259 6.0056 9.72649 5.74954 10.4474 5.33804C10.6485 5.50509 10.888 5.62484 11.1475 5.68286C11.267 5.70954 11.3882 5.72273 11.509 5.72273C11.8459 5.72273 12.1791 5.62048 12.4596 5.42559C12.7061 5.2543 12.9024 5.01935 13.0271 4.74623L13.5472 3.60744C13.6503 3.38157 13.6377 3.11837 13.5136 2.90321C13.5136 2.90321 13.5136 2.90315 13.5136 2.90315C13.3894 2.68799 13.1676 2.5455 12.9204 2.52196L11.6742 2.40294C11.375 2.37426 11.0737 2.42691 10.802 2.55475C10.3822 2.75237 10.0619 3.11958 9.92314 3.56236C9.81804 3.89787 9.82348 4.25722 9.93318 4.58649C9.33762 4.91649 8.72022 5.12197 8.09603 5.19748C7.60835 5.25653 7.14082 5.23971 6.58023 5.14296C6.33325 5.10013 6.09848 5.26603 6.05589 5.51296C6.01323 5.75982 6.1789 5.99465 6.42588 6.03725ZM10.7892 3.83367C10.8532 3.62952 10.995 3.46694 11.1886 3.37588C11.2909 3.32772 11.4025 3.30291 11.5151 3.30291C11.5183 3.2962 12.6281 3.4071 12.6409 3.40698L12.2014 4.36921C12.1443 4.49428 12.0545 4.6018 11.9416 4.68027C11.7659 4.80238 11.5542 4.84394 11.3455 4.79717C11.1367 4.75052 10.9628 4.62279 10.8558 4.43752C10.7489 4.25225 10.7253 4.03776 10.7892 3.83367Z" fill="#E39E25"/>
<path d="M24.1962 18.5087C23.6965 20.5078 22.0125 21.1173 21.4646 21.0289C21.6285 20.2419 21.9437 19.4874 22.3989 18.8173C22.5398 18.61 22.4859 18.3277 22.2785 18.1869C22.0712 18.046 21.7889 18.1 21.6482 18.3073C20.7546 19.6228 20.3274 21.2206 20.4451 22.8064L20.4745 23.2021C20.498 23.5179 20.4463 23.8395 20.3251 24.1321C20.0536 24.7873 19.9718 25.5033 20.0886 26.2028L20.1741 26.715H18.571L18.6357 26.4131C18.8645 25.3848 18.8132 24.1514 18.4853 23.1112C18.9055 22.7776 19.6103 22.0572 19.6492 20.9543C19.6798 20.0867 19.2715 19.4474 19.0946 19.2128C18.5954 18.5513 17.9271 18.2848 17.4835 18.1777C17.4758 17.9843 17.4717 17.7906 17.4717 17.5966C17.4717 17.346 17.2685 17.1428 17.0179 17.1428C16.7673 17.1428 16.5641 17.346 16.5641 17.5966C16.5641 18.3468 16.6185 19.0941 16.7256 19.8336C16.3422 19.8417 15.9606 19.8894 15.5858 19.9782L13.3501 20.5078C12.1534 20.7913 10.8736 20.5725 9.83906 19.9075C9.23509 19.5192 8.57067 19.2571 7.8642 19.1285L6.84558 18.9431C7.233 18.4064 7.81913 18.0284 8.50393 17.9074L9.21585 17.7816C9.46265 17.738 9.62735 17.5026 9.58379 17.2558C9.54016 17.009 9.30491 16.8444 9.05793 16.8878L8.34607 17.0136C8.05843 17.0645 7.78403 17.1494 7.52621 17.2634C6.61517 16.4804 5.47651 16.2502 4.60988 16.6988C4.22083 16.9002 3.70755 17.3398 3.47176 18.2902C3.1728 19.4955 3.71221 20.872 4.88591 21.9524L4.25967 22.9478C3.73351 23.7841 3.52839 24.7821 3.68208 25.7582L3.83274 26.7149H2.17306L2.20912 26.3573C2.27689 25.6866 2.23979 25.0108 2.09882 24.3487C1.94652 23.6334 1.73965 22.6074 1.619 21.7819C1.58548 21.5593 1.657 21.2021 1.89182 20.9638C2.25032 20.5929 2.4175 20.0673 2.33902 19.5577L1.89182 16.3947C1.85364 16.147 1.62203 15.9772 1.37419 16.0153C1.12648 16.0535 0.956641 16.2852 0.99482 16.5329L1.44202 19.6959C1.47754 19.9267 1.40178 20.1649 1.23908 20.3332C0.861405 20.7024 0.634809 21.3468 0.72103 21.9132C0.845189 22.7627 1.05611 23.8093 1.21119 24.5377C1.33251 25.1076 1.36445 25.6891 1.30619 26.2662L1.26002 26.7236C1.23685 26.9529 1.31224 27.1825 1.46677 27.3535C1.59395 27.4941 1.76627 27.5844 1.95166 27.6123V28.2172C1.95166 28.8677 2.48097 29.397 3.13153 29.397H5.34261C5.50313 29.397 5.65174 29.3122 5.73336 29.174C5.81498 29.0357 5.81746 28.8646 5.73989 28.724L4.79939 27.0193L4.57854 25.6169C4.45898 24.8578 4.61853 24.0816 5.0278 23.4311L5.67213 22.4069C5.89793 22.0481 6.05549 21.6555 6.14044 21.2402C6.24155 20.7672 6.33915 20.226 6.44231 19.7922L7.70162 20.0213C8.29059 20.1285 8.84458 20.347 9.34818 20.6707C10.2332 21.2397 11.2676 21.5363 12.309 21.5363C12.7276 21.5363 13.1477 21.4884 13.5593 21.3908L15.7949 20.8612C16.1526 20.7764 16.5176 20.7361 16.8839 20.7396C16.9817 21.2154 17.1017 21.687 17.244 22.1532L17.6291 23.4149C17.9063 24.3232 17.9475 25.2941 17.7484 26.2226L17.6601 26.6343C17.6081 26.8767 17.6676 27.1263 17.8235 27.319C17.9175 27.4354 18.0393 27.5211 18.1755 27.5713V28.2171C18.1755 28.8677 18.7048 29.397 19.3553 29.397H21.6889C21.8494 29.397 21.998 29.3122 22.0796 29.1739C22.1613 29.0356 22.1637 28.8645 22.0862 28.724L21.1446 27.0173L20.9837 26.0532C20.895 25.5215 20.9571 24.9773 21.1635 24.4793C21.3387 24.0564 21.4134 23.5914 21.3795 23.1347L21.3501 22.739C21.33 22.4688 21.3288 22.1982 21.3445 21.9291C21.4976 21.9524 21.6518 21.9642 21.8058 21.9642C22.4277 21.9642 24.6959 20.8924 24.8281 19.3935C24.8768 18.8418 24.9718 18.8255 24.8281 18.6202C24.6844 18.4149 24.4015 18.365 24.1962 18.5087ZM3.13147 28.4895C2.98136 28.4895 2.8592 28.3673 2.8592 28.2172V27.6225H4.09564L4.57394 28.4895H3.13147ZM4.35261 18.5087C4.47628 18.0103 4.70318 17.6725 5.02707 17.5049C5.48964 17.2655 6.1307 17.3804 6.70267 17.7741C6.10553 18.272 5.67945 18.9663 5.51517 19.7692L5.25457 21.0428C4.49601 20.2395 4.15451 19.3074 4.35261 18.5087ZM18.37 19.7593C18.4887 19.9167 18.7626 20.3449 18.7422 20.9222C18.7231 21.4637 18.4507 21.8781 18.1925 22.1519L18.1121 21.8882C17.8388 20.9927 17.6526 20.0757 17.5543 19.148C17.8194 19.2522 18.1255 19.4352 18.37 19.7593ZM19.3553 28.4895C19.2052 28.4895 19.0831 28.3673 19.0831 28.2172V27.6225H20.4419L20.9203 28.4895H19.3553Z" fill="#E39E25"/>
<path d="M29.9901 8.10656C29.4387 8.10656 28.8821 8.46748 28.4874 8.79839C28.4066 8.6032 28.1842 8.26678 27.9746 8.02899L28.4633 7.61816C29.4029 6.8297 29.5259 5.42384 28.7375 4.48424C28.5764 4.29225 28.2901 4.26721 28.0982 4.42833L26.0544 6.14326H24.0113L21.9676 4.42833C21.7756 4.26721 21.4893 4.29219 21.3283 4.48424C20.5398 5.42384 20.6628 6.8297 21.6024 7.61816L22.0915 8.02857C21.9085 8.24548 21.7382 8.46016 21.5778 8.80014C21.1847 8.46857 20.6287 8.10656 20.0742 8.10656C19.301 8.10656 18.7706 8.50324 18.6087 9.16754C17.3013 9.35498 15.2942 9.30349 13.9691 9.30888C11.7305 9.30888 9.49369 9.03551 7.32097 8.49646C6.75694 8.35651 6.1762 8.28554 5.59486 8.28554C4.34226 8.28554 3.15349 8.75017 2.24058 9.55502C2.0276 9.03612 1.80935 8.15605 2.05718 7.29784C2.13354 7.03361 2.38301 6.37306 3.0484 5.94758C3.44556 5.69358 3.86015 5.5987 4.39254 5.63985C4.64225 5.6586 7.70766 6.39684 7.70766 5.89719C7.70766 4.89788 4.71237 4.75434 4.46254 4.73498C3.73072 4.6784 3.1259 4.82072 2.55945 5.18297C1.63413 5.77472 1.29021 6.68291 1.18529 7.04601C0.812936 8.33552 1.22401 9.63089 1.57453 10.268C1.42877 10.4576 1.29511 10.6585 1.17597 10.8705C0.621858 11.856 0.411841 13.014 0.584526 14.1313L0.910472 16.2419C0.945082 16.4661 1.13828 16.6265 1.3584 16.6265C1.38139 16.6265 1.40475 16.6247 1.42816 16.6211C1.67587 16.5829 1.84565 16.3511 1.80748 16.1034L1.48153 13.9925C1.3921 13.4139 1.42798 12.822 1.58064 12.2607C2.10184 12.2165 2.59648 12.2708 3.05402 12.425C3.59023 12.6057 3.89403 12.8628 4.18785 13.1116C4.52347 13.3957 4.87054 13.6895 5.46047 13.7936C5.60587 13.8192 5.75671 13.8319 5.91082 13.8319C7.06503 13.8318 8.39211 13.1226 8.81215 11.8688C9.04606 11.1706 8.9766 10.4011 8.64878 9.71487C10.4015 10.0476 12.1848 10.2165 13.9693 10.2165C14.4108 10.2153 16.1863 10.2191 16.5165 10.2146C16.0898 10.6587 15.7991 11.2022 15.6905 11.7976C15.6536 12.0003 15.6374 12.2245 15.6438 12.4462C15.6509 12.6923 15.8526 12.8869 16.0971 12.8869C16.1016 12.8869 16.106 12.8868 16.1105 12.8867C16.361 12.8795 16.5583 12.6705 16.551 12.42C16.5465 12.263 16.558 12.0998 16.5834 11.9604C16.7354 11.1261 17.4464 10.4014 18.3986 10.1049C18.469 10.0975 18.5392 10.0892 18.6095 10.081C18.7722 10.7435 19.3023 11.139 20.0744 11.139C20.5715 11.139 21.0697 10.848 21.4508 10.5489C21.4761 10.6388 21.505 10.7281 21.5404 10.8159L22.9699 14.3625C22.7583 14.6655 22.6337 15.0336 22.6337 15.4304V15.4512C22.0678 15.3904 21.8642 15.2074 21.6189 14.9866C21.4237 14.8111 21.1808 14.5925 20.7811 14.4375C20.0797 14.1655 19.5432 14.2565 19.0699 14.3368C18.6184 14.4133 18.2618 14.4738 17.7514 14.2337C17.5841 14.1549 16.6041 12.2487 16.461 12.1321C16.2667 11.9737 15.9808 12.0029 15.8225 12.1971C15.6642 12.3914 15.6933 12.6772 15.8875 12.8356C16.0879 12.9989 16.2913 14.4676 17.3651 15.055C18.133 15.4162 18.7113 15.3181 19.2217 15.2316C19.6312 15.1621 19.9848 15.1022 20.4529 15.2837C20.6975 15.3786 20.8363 15.5034 21.0119 15.6614C21.3381 15.9548 21.7025 16.2822 22.6338 16.362V16.422C22.6338 16.9847 23.0915 17.4425 23.6542 17.4425H24.2531C24.1714 17.9663 24.0586 18.7011 23.9792 19.2085C23.9366 19.4555 24.1023 19.6902 24.3493 19.7328C24.3754 19.7372 24.4014 19.7394 24.427 19.7394C24.6438 19.7394 24.8356 19.5835 24.8736 19.3626C24.9527 18.859 25.0709 18.088 25.1715 17.4425H26.4165C26.9791 17.4425 27.4369 16.9847 27.4369 16.422V15.4304C27.4369 15.0335 27.3123 14.6653 27.1005 14.3622L28.5272 10.8149C28.5621 10.728 28.5907 10.6398 28.6157 10.5508C28.998 10.8492 29.4962 11.139 29.9904 11.139C30.9242 11.139 31.5043 10.558 31.5043 9.62278C31.504 8.68754 30.9239 8.10656 29.9901 8.10656ZM7.95139 11.5804C7.59882 12.6328 6.34798 13.0284 5.61809 12.8997C5.26964 12.8382 5.0618 12.6622 4.77409 12.4188C4.44887 12.1435 4.04414 11.8009 3.3436 11.5648C2.9027 11.4163 2.43783 11.3407 1.95493 11.3377C2.65813 10.052 4.09449 9.18411 5.59473 9.19307C6.10256 9.19307 6.60979 9.25509 7.10237 9.37731C7.18617 9.39812 7.27021 9.41773 7.35419 9.43776C7.95399 10.0403 8.18906 10.8709 7.95139 11.5804ZM28.2722 5.46704C28.4537 5.97166 28.314 6.55863 27.8796 6.92312L27.4005 7.32585L26.8542 6.65677L28.2722 5.46704ZM22.1859 6.92294C21.7517 6.55863 21.6121 5.97166 21.7936 5.46704L23.2116 6.65683L22.6656 7.32549L22.1859 6.92294ZM20.0743 10.2314C19.6346 10.2314 19.4633 10.0608 19.4633 9.62278C19.4633 9.18478 19.6346 9.01415 20.0743 9.01415C20.3873 9.01415 20.8236 9.33429 21.137 9.62278C20.8234 9.9114 20.3873 10.2314 20.0743 10.2314ZM22.6374 8.79506L24.0616 7.05085H26.0042L26.3889 7.52207C28.2722 9.39476 27.9746 10.2888 26.7228 12.8685L26.3713 13.7425C26.1273 13.6256 25.8543 13.5601 25.5663 13.5601H24.5039C24.2156 13.5601 23.9425 13.6257 23.6984 13.7427L22.382 10.4766C22.1542 9.9114 22.2521 9.26707 22.6374 8.79506ZM26.5291 16.422C26.5291 16.4842 26.4785 16.5348 26.4162 16.5348H23.654C23.5918 16.5348 23.5412 16.4842 23.5412 16.422V15.4304C23.5412 14.8995 23.973 14.4676 24.5039 14.4676H25.5664C26.0972 14.4676 26.5291 14.8995 26.5291 15.4304L26.5291 16.422ZM29.9901 10.2314C29.6946 10.2314 29.2599 9.93143 28.9231 9.62278C29.2599 9.31402 29.6946 9.01415 29.9901 9.01415C30.3541 9.01415 30.5965 9.11762 30.5965 9.62278C30.5964 10.1279 30.3541 10.2314 29.9901 10.2314Z" fill="#E39E25"/>
<path d="M10.3218 16.5125C10.5356 16.6455 10.7044 16.7505 10.8424 16.9974C10.9788 17.2414 10.983 17.4436 10.9879 17.6777C10.9944 17.988 11.0025 18.3742 11.3656 18.7172C11.7026 19.0356 12.1338 19.1156 12.4819 19.1156C12.763 19.1156 12.9901 19.0634 13.0694 19.0425C14.0165 18.7942 14.4377 17.9499 14.5962 17.6321C14.6889 17.4465 15.4711 15.7749 14.4153 14.2905C13.8203 13.454 12.8341 12.9558 11.8416 12.9903C11.3711 13.0067 10.2201 13.1501 9.69652 14.1252C9.60243 14.3004 9.31285 14.9255 9.536 15.6128C9.70293 16.1273 10.0461 16.3409 10.3218 16.5125ZM10.4961 14.5546C10.7969 13.9943 11.5593 13.9084 11.8732 13.8975C12.5013 13.8676 13.2629 14.226 13.6756 14.8167C14.4374 15.8876 13.8111 17.1728 13.7841 17.227C13.6555 17.4846 13.3881 18.0208 12.839 18.1648C12.6787 18.2069 12.2134 18.2697 11.9889 18.0576C11.9094 17.9825 11.9008 17.9195 11.8953 17.6588C11.8894 17.3792 11.8814 16.9962 11.6347 16.5547C11.3825 16.1036 11.0467 15.8946 10.8015 15.742C10.5613 15.5925 10.4614 15.5242 10.3992 15.3327C10.2841 14.9782 10.4597 14.6223 10.4961 14.5546Z" fill="#E39E25"/>
<path d="M8.38886 21.4657C7.43086 21.0424 6.94623 20.0299 7.30914 19.2084L7.80565 19.4278C7.56371 19.9754 7.92378 20.6668 8.60821 20.9692C9.29264 21.2715 10.0462 21.0722 10.2882 20.5245L10.7847 20.7439C10.4218 21.5653 9.34687 21.8889 8.38886 21.4657Z" fill="#E39E25"/>
<path d="M7.75525 20.8896L8.25175 21.1089L7.92273 21.8537L7.42623 21.6343L7.75525 20.8896Z" fill="#E39E25"/>
<path d="M8.74738 21.327L9.24388 21.5463L8.91486 22.2911L8.41835 22.0718L8.74738 21.327Z" fill="#E39E25"/>
</g>
<defs>
<clipPath id="clip0_1_4038">
<rect width="30.9785" height="30.9785" fill="white" transform="translate(0.526611 0.402557)"/>
</clipPath>
</defs>
</svg>
