<svg width="27" height="27" viewBox="0 0 27 27" fill="none" xmlns="http://www.w3.org/2000/svg">
<mask id="mask0_1_19916" style="mask-type:alpha" maskUnits="userSpaceOnUse" x="0" y="0" width="27" height="27">
<rect width="25.9819" height="25.9819" transform="matrix(-1 0 0 1 26.9715 0.513916)" fill="#D9D9D9"/>
</mask>
<g mask="url(#mask0_1_19916)">
<path d="M18.3109 20.0004H9.65023V17.8353H18.3109V20.0004ZM18.3109 15.6701H9.65023V13.5049H18.3109V15.6701ZM20.476 24.3308C21.0715 24.3308 21.5812 24.1188 22.0052 23.6947C22.4292 23.2707 22.6412 22.761 22.6412 22.1656V4.8443C22.6412 4.24888 22.4292 3.73917 22.0052 3.31515C21.5812 2.89114 21.0715 2.67914 20.476 2.67914H11.8154L5.31991 9.17462V22.1656C5.31991 22.761 5.53192 23.2707 5.95593 23.6947C6.37994 24.1188 6.88965 24.3308 7.48507 24.3308H20.476ZM12.898 10.2572H7.48507L12.898 4.8443V10.2572Z" fill="white"/>
</g>
</svg>
