<svg width="32" height="32" viewBox="0 0 32 32" fill="none" xmlns="http://www.w3.org/2000/svg">
<rect width="32" height="32" fill="#1E1E1E"/>
<g id="Breeding Dashbouurd" clip-path="url(#clip0_0_1)">
<rect width="1440" height="939" transform="translate(-264 -148)" fill="#F2F5F9"/>
<g id="body">
<g id="Frame 2609028">
<g id="Frame 2608976">
<rect x="-15.1722" y="-15.0867" width="287.905" height="85.9535" rx="4.99653" fill="url(#paint0_linear_0_1)"/>
<g id="Frame 2608974">
<g id="Frame 2608979">
<g id="sperm 3">
<rect x="-5.17914" y="-5.09363" width="41.9708" height="41.9708" rx="20.9854" fill="white"/>
<g id="Frame 2608969">
<path id="Vector" d="M20.4248 16.9262H19.0875V15.7989C19.288 15.7095 19.4778 15.6142 19.6561 15.5122C20.736 14.8944 21.4421 14.0264 21.7549 12.9322C21.8463 12.6121 21.9375 12.3049 22.0287 12.0065C22.9916 11.9981 23.7723 11.266 23.7723 10.367C23.7723 9.82498 23.4838 9.32825 23.0233 9.02612C23.1136 8.77065 23.2054 8.51219 23.2996 8.24743C23.4848 7.72697 23.6762 7.18876 23.8804 6.60281C24.2454 5.55535 24.1588 4.48338 23.6362 3.5842C23.3108 3.02424 22.831 2.5536 22.2363 2.19686C22.2175 2.18395 22.1983 2.17212 22.1782 2.16208C21.7825 1.9326 21.3381 1.75248 20.8542 1.63047C19.8567 1.37877 18.8382 1.46055 17.8534 1.5395C17.3708 1.57828 16.9151 1.6148 16.4619 1.6148C16.0087 1.6148 15.553 1.57828 15.0705 1.5395C14.0856 1.4606 13.0671 1.37889 12.0697 1.63047C10.8255 1.94421 9.83744 2.63813 9.28759 3.5842C8.76508 4.48333 8.6784 5.55535 9.0434 6.60281C9.24749 7.18842 9.43887 7.72635 9.62391 8.24658C9.71567 8.50442 9.80514 8.75622 9.89321 9.00515C9.41365 9.30368 9.11314 9.80796 9.11314 10.367C9.11314 11.2712 9.90277 12.0069 10.8733 12.0069C10.8806 12.0069 10.8878 12.0062 10.8952 12.0062C10.9864 12.3047 11.0776 12.612 11.1691 12.9322C11.4819 14.0264 12.1881 14.8944 13.2678 15.5122C13.4462 15.6142 13.636 15.7095 13.8365 15.7989V16.9262H12.4992C8.53698 16.9262 5.31351 19.9295 5.31351 23.621V29.8651C5.31351 30.114 5.53018 30.3159 5.79742 30.3159H27.1266C27.3938 30.3159 27.6105 30.114 27.6105 29.8651V23.621C27.6105 19.9295 24.387 16.9262 20.4248 16.9262ZM23.1122 23.9632C23.5102 24.2981 23.854 24.5874 23.854 25.0888V29.4142H20.9087V17.8454C21.3618 17.878 21.8013 17.9564 22.2222 18.0751V22.5532C22.2222 23.2143 22.695 23.6122 23.1122 23.9632ZM10.7016 22.5532V18.0751C11.1225 17.9565 11.5621 17.878 12.0152 17.8454V29.4142H9.06989V25.0888C9.06989 24.5874 9.41365 24.2981 9.81173 23.9632C10.2287 23.6122 10.7016 23.2143 10.7016 22.5532ZM16.4619 19.8232C17.7443 19.8232 18.8141 18.962 19.042 17.8279H19.9064C19.6701 19.4024 18.2159 20.6184 16.4619 20.6184C14.7079 20.6184 13.2537 19.4024 13.0174 17.8279H13.8819C14.1097 18.962 15.1795 19.8232 16.4619 19.8232ZM12.983 19.9547C13.7036 20.7973 14.7689 21.3729 15.978 21.4953V23.6211C15.978 23.8701 16.1947 24.0719 16.4619 24.0719C16.7292 24.0719 16.9458 23.8701 16.9458 23.6211V21.4953C18.155 21.3729 19.2202 20.7973 19.9408 19.9547V29.4142H12.983V19.9547ZM22.8045 10.367C22.8045 10.6672 22.6108 10.9256 22.334 11.0409C22.4507 10.6831 22.5685 10.333 22.6888 9.98357C22.7627 10.0967 22.8045 10.2286 22.8045 10.367ZM22.9599 6.32435C22.7566 6.9077 22.5656 7.44456 22.381 7.96378C22.1641 8.57351 21.9586 9.15146 21.7592 9.73148L17.5424 6.70572C19.1281 5.56753 20.6071 4.38453 21.996 3.14462C22.3237 3.38842 22.5918 3.6808 22.7852 4.01353C23.1859 4.70323 23.2463 5.50232 22.9599 6.32435ZM10.9759 9.18781C14.656 7.11431 17.8286 4.92804 20.6568 2.51601C20.82 2.55935 20.9777 2.61001 21.1283 2.66885C18.2486 5.21248 14.9732 7.51529 11.1487 9.68521C11.0917 9.51958 11.0341 9.354 10.9759 9.18781ZM10.1387 4.01359C10.5611 3.28675 11.3367 2.7495 12.3226 2.50085C13.1549 2.29092 14.045 2.36232 14.9875 2.43795C15.4692 2.47661 15.9672 2.51657 16.462 2.51657C16.9568 2.51657 17.4548 2.47661 17.9365 2.43795C18.4372 2.39783 18.923 2.35928 19.3933 2.363C16.8169 4.49251 13.9483 6.4467 10.6655 8.30886C10.6249 8.19445 10.584 8.07937 10.5426 7.96288C10.3579 7.44394 10.1671 6.90731 9.96398 6.32429C9.67744 5.50232 9.73787 4.70329 10.1387 4.01359ZM10.0809 10.367C10.0809 10.212 10.1324 10.0664 10.2221 9.94592C10.3487 10.3133 10.4726 10.681 10.5952 11.0574C10.2953 10.9521 10.0809 10.6828 10.0809 10.367ZM12.1042 12.7002C11.9714 12.2356 11.8396 11.7984 11.7072 11.3766C11.707 11.3758 11.7069 11.3751 11.7067 11.3744C11.7065 11.3739 11.7063 11.3735 11.7061 11.3729C11.6204 11.1001 11.5345 10.8335 11.4478 10.5709C13.3375 9.50645 15.0965 8.4103 16.7424 7.26986L21.4506 10.6482C21.2384 11.294 21.0302 11.963 20.8196 12.7002C20.3785 14.2432 18.9928 15.1707 16.4619 15.6154C13.9309 15.1707 12.5453 14.2432 12.1042 12.7002ZM16.3752 16.5175C16.4039 16.5224 16.4329 16.5248 16.4619 16.5248C16.491 16.5248 16.5199 16.5224 16.5486 16.5175C17.1255 16.4197 17.6472 16.2998 18.1196 16.1564V17.3771C18.1196 18.2286 17.376 18.9215 16.462 18.9215C15.548 18.9215 14.8043 18.2286 14.8043 17.3771V16.1564C15.2766 16.2998 15.7984 16.4197 16.3752 16.5175ZM6.28121 23.621C6.28121 21.3517 7.68916 19.3834 9.7337 18.4335V22.5532C9.7337 22.8016 9.52749 22.9872 9.16286 23.294C8.69026 23.6918 8.10194 24.1868 8.10194 25.0889V29.4142H6.28121V23.621ZM26.6426 29.4142H24.8218V25.0888C24.8218 24.1867 24.2335 23.6917 23.7609 23.294C23.3963 22.9872 23.19 22.8016 23.19 22.5532V18.4334C25.2346 19.3833 26.6426 21.3517 26.6426 23.621L26.6426 29.4142Z" fill="#D26041"/>
<path id="Vector 674" d="M20.3028 1.89816C18.7039 3.89677 12.9745 7.39434 10.3097 8.8933C6.81214 2.39782 13.8073 1.39851 15.8059 1.89816C17.8045 2.39782 17.3048 1.89816 20.3028 1.89816Z" fill="#D26041" fill-opacity="0.5"/>
<path id="Vector 675" d="M21.8016 10.3935L16.805 6.89596C19.8029 4.89816 20.3026 2.49864 22.3012 2.89836C24.2998 3.29808 23.6336 5.7301 23.3005 6.89596L21.8016 10.3935Z" fill="#D26041" fill-opacity="0.5"/>
<rect id="Rectangle 404" x="5.81314" y="26.8873" width="20.9854" height="2.99792" fill="#D26041" fill-opacity="0.5"/>
<path id="Vector 677" d="M5.81314 26.8873H26.7986" stroke="#D26041" stroke-width="0.999306"/>
</g>
</g>
</g>
</g>
</g>
</g>
</g>
</g>
<defs>
<linearGradient id="paint0_linear_0_1" x1="-16.2663" y1="-13.1031" x2="273.452" y2="7.42076" gradientUnits="userSpaceOnUse">
<stop stop-color="#FB7D5B"/>
<stop offset="1" stop-color="#C55639"/>
</linearGradient>
<clipPath id="clip0_0_1">
<rect width="1440" height="939" fill="white" transform="translate(-264 -148)"/>
</clipPath>
</defs>
</svg>
