<svg width="27" height="27" viewBox="0 0 27 27" fill="none" xmlns="http://www.w3.org/2000/svg">
<mask id="mask0_1_19985" style="mask-type:alpha" maskUnits="userSpaceOnUse" x="0" y="0" width="27" height="27">
<rect width="25.9819" height="25.9819" transform="matrix(-1 0 0 1 26.9715 0.549316)" fill="#D9D9D9"/>
</mask>
<g mask="url(#mask0_1_19985)">
<path d="M19.3935 24.3662V18.9533H24.8064V14.4425H17.7155L15.8209 17.2753C15.7428 17.3955 15.6405 17.4948 15.5142 17.573C15.3879 17.6511 15.2476 17.6902 15.0933 17.6902C14.8928 17.6902 14.7111 17.6301 14.5482 17.5098C14.3854 17.3895 14.2743 17.2392 14.2151 17.0587L12.6273 12.3134L11.4906 14.0275C11.3944 14.1478 11.2831 14.247 11.1568 14.3252C11.0305 14.4034 10.8892 14.4425 10.7328 14.4425H3.15474V18.9533H8.56765V24.3662H19.3935ZM15.3338 14.7673L16.4795 13.0351C16.5551 12.9175 16.661 12.822 16.7972 12.7485C16.9333 12.675 17.077 12.6382 17.2283 12.6382H24.8064V8.12744H19.3935V2.71454H8.56765V8.12744H3.15474V12.6382H10.2547L12.1492 9.80544C12.2394 9.68515 12.3477 9.58592 12.474 9.50774C12.6003 9.42955 12.7398 9.39046 12.8927 9.39046C13.0914 9.39046 13.271 9.4506 13.4316 9.57088C13.5921 9.69117 13.7029 9.84153 13.764 10.022L15.3338 14.7673Z" fill="white"/>
</g>
</svg>
