<svg width="27" height="27" viewBox="0 0 27 27" fill="none" xmlns="http://www.w3.org/2000/svg">
<g clip-path="url(#clip0_1_20174)">
<path d="M5.31991 2.74994H22.6412C23.7238 2.74994 24.8064 3.72426 24.8064 4.9151V8.17367C24.8064 10.328 24.8064 10.0032 22.6412 10.0032V22.2364C22.6412 23.4272 21.4504 24.4016 20.476 24.4016H7.48507C6.51075 24.4016 5.31991 23.4272 5.31991 22.2364V10.0032C3.15475 10.0032 3.15475 9.78672 3.15475 8.17367V4.9151C3.15475 3.72426 4.23733 2.74994 5.31991 2.74994ZM10.7328 15.7409H17.2283V13.5757H10.7328V15.7409ZM5.31991 8.16284H22.6412V4.9151L5.31991 4.89345V8.16284Z" fill="white"/>
</g>
<defs>
<clipPath id="clip0_1_20174">
<rect width="25.9819" height="25.9819" fill="white" transform="matrix(-1 0 0 1 26.9715 0.584717)"/>
</clipPath>
</defs>
</svg>
