<svg width="27" height="27" viewBox="0 0 27 27" fill="none" xmlns="http://www.w3.org/2000/svg">
<g clip-path="url(#clip0_1_19960)">
<path d="M16.1457 13.9271C13.7541 13.9271 11.8154 11.9883 11.8154 9.59677C11.8154 7.2052 13.7541 5.26645 16.1457 5.26645C18.5373 5.26645 20.476 7.2052 20.476 9.59677C20.476 11.9883 18.5373 13.9271 16.1457 13.9271Z" fill="white"/>
<path d="M15.4204 15.0313C15.6586 15.0205 15.8967 15.0097 16.1457 15.0097C18.7656 15.0097 21.2122 15.735 23.3016 16.98C24.2542 17.5429 24.8064 18.6038 24.8064 19.7189V22.5877H14.7817C15.6369 21.3644 16.1457 19.8705 16.1457 18.2574C16.1457 17.0991 15.8751 16.0165 15.4204 15.0313Z" fill="white"/>
<path d="M4.50798 18.2574C4.50798 18.0193 4.54046 17.8028 4.57293 17.5754L3.33879 16.482L4.42137 14.6092L5.99112 15.1396C6.33754 14.8473 6.72727 14.62 7.1603 14.4576L7.48508 12.8445H9.65024L9.97501 14.4576C10.408 14.62 10.7978 14.8473 11.1442 15.1396L12.7139 14.6092L13.7965 16.482L12.5624 17.5754C12.5949 17.8028 12.6273 18.0193 12.6273 18.2574C12.6273 18.4956 12.5949 18.7121 12.5624 18.9395L13.7965 20.0329L12.7139 21.9057L11.1442 21.3753C10.7978 21.6676 10.408 21.8949 9.97501 22.0573L9.65024 23.6704H7.48508L7.1603 22.0573C6.72727 21.8949 6.33754 21.6676 5.99112 21.3753L4.42137 21.9057L3.33879 20.0329L4.57293 18.9395C4.54046 18.7121 4.50798 18.4956 4.50798 18.2574ZM8.56766 20.4226C9.7585 20.4226 10.7328 19.4483 10.7328 18.2574C10.7328 17.0666 9.7585 16.0923 8.56766 16.0923C7.37682 16.0923 6.4025 17.0666 6.4025 18.2574C6.4025 19.4483 7.37682 20.4226 8.56766 20.4226Z" fill="white"/>
</g>
<defs>
<clipPath id="clip0_1_19960">
<rect width="25.9819" height="25.9819" fill="white" transform="matrix(-1 0 0 1 26.9715 0.936127)"/>
</clipPath>
</defs>
</svg>
