<svg width="22" height="22" viewBox="0 0 22 22" fill="none" xmlns="http://www.w3.org/2000/svg">
<rect x="1.14891" y="0.835217" width="19.9861" height="19.9861" rx="6.49549" fill="#4076B1" stroke="#4076B1" stroke-width="0.999306"/>
<path d="M14.5861 7.87769C14.3278 7.3677 14.0297 6.89745 13.6356 6.46694C13.5727 6.39739 13.4833 6.35766 13.3906 6.35766H12.1686C12.3209 6.34772 13.6224 6.18545 13.5131 4.05608C13.5065 3.93686 13.5661 3.82427 13.6687 3.75803C13.7714 3.69511 13.8972 3.6918 14.0032 3.7481C14.0363 3.76797 14.8146 4.2051 15.0828 5.19196C15.3014 5.98675 15.1325 6.89083 14.5861 7.87769Z" fill="white"/>
<path d="M10.2214 6.35766H9.07888C8.98616 6.35766 8.89675 6.3974 8.83382 6.46694C8.43974 6.90076 8.1152 7.38095 7.82709 7.91743C7.2608 6.91401 7.08529 6 7.30717 5.19197C7.57541 4.2051 8.35364 3.76797 8.38676 3.7481C8.49273 3.6918 8.61857 3.69511 8.72123 3.75803C8.82389 3.82427 8.8835 3.93686 8.87688 4.05608C8.76759 6.18876 10.0724 6.34772 10.2214 6.35766Z" fill="white"/>
<path d="M19.0435 9.39767C18.4839 10.0401 17.9341 10.5004 17.3612 10.8084C16.9771 11.0171 16.5333 11.1462 16.0432 11.1893L15.3941 11.2422C15.3809 11.2919 15.3643 11.3416 15.3477 11.3913L15.2385 11.7026C14.9835 12.4146 14.7384 13.1001 14.5728 13.7425C13.7979 13.0669 12.5958 12.6497 11.195 12.6497C9.79416 12.6497 8.59204 13.0669 7.81712 13.7425C7.65154 13.1001 7.40648 12.4146 7.15149 11.7026L7.0422 11.3913C7.02565 11.3515 7.01571 11.3118 7.00578 11.272L6.31365 11.2124C5.84009 11.1727 5.39633 11.0469 4.99893 10.8349C4.42271 10.5236 3.87298 10.06 3.31332 9.42085C3.22059 9.31488 3.20404 9.16255 3.27358 9.04002C3.33981 8.9208 3.4789 8.85125 3.61468 8.87444C3.95909 8.93073 4.69427 8.62275 5.57847 8.04984C6.11826 7.70212 6.78059 7.61271 7.35681 7.80809C7.50252 7.85777 7.64823 7.92069 7.79063 7.98361C7.80388 7.96043 7.81381 7.94056 7.82706 7.91738C8.11517 7.3809 8.43971 6.90071 8.83379 6.46689C8.89671 6.39734 8.98613 6.3576 9.07885 6.3576H13.3906C13.4833 6.3576 13.5727 6.39734 13.6356 6.46689C14.0297 6.8974 14.3278 7.36765 14.5861 7.87764C14.596 7.89751 14.6059 7.91738 14.6159 7.93725C14.745 7.87764 14.8742 7.82796 15 7.78491C15.5829 7.58953 16.2485 7.67894 16.7817 8.02666C17.6626 8.59626 18.3944 8.90755 18.7455 8.85125C18.8812 8.83139 19.017 8.89762 19.0866 9.02015C19.1528 9.14268 19.1362 9.2917 19.0435 9.39767Z" fill="white"/>
<path d="M11.195 13.3122C9.1517 13.3122 7.55219 14.3288 7.55219 15.6303C7.55219 16.9318 9.1517 17.9484 11.195 17.9484C13.2382 17.9484 14.8377 16.9318 14.8377 15.6303C14.8377 14.3288 13.2382 13.3122 11.195 13.3122ZM9.87032 15.9615H9.208C9.02586 15.9615 8.87683 15.8124 8.87683 15.6303C8.87683 15.4482 9.02586 15.2991 9.208 15.2991H9.87032C10.0525 15.2991 10.2015 15.4482 10.2015 15.6303C10.2015 15.8124 10.0525 15.9615 9.87032 15.9615ZM13.1819 15.9615H12.5196C12.3375 15.9615 12.1885 15.8124 12.1885 15.6303C12.1885 15.4482 12.3375 15.2991 12.5196 15.2991H13.1819C13.3641 15.2991 13.5131 15.4482 13.5131 15.6303C13.5131 15.8124 13.3641 15.9615 13.1819 15.9615Z" fill="white"/>
</svg>
