<svg width="27" height="27" viewBox="0 0 27 27" fill="none" xmlns="http://www.w3.org/2000/svg">
<mask id="mask0_1_19425" style="mask-type:alpha" maskUnits="userSpaceOnUse" x="2" y="0" width="25" height="25">
<rect width="23.9833" height="23.9833" transform="matrix(-1 0 0 1 26.9715 0.655518)" fill="#D9D9D9"/>
</mask>
<g mask="url(#mask0_1_19425)">
<path d="M13.9806 24.4724C16.8855 22.0005 19.0552 19.7045 20.4896 17.5844C21.924 15.4644 22.6412 13.5022 22.6412 11.6979C22.6412 8.99145 21.7706 6.83531 20.0295 5.22948C18.2883 3.62365 16.272 2.82074 13.9806 2.82074C11.6891 2.82074 9.67279 3.62365 7.93163 5.22948C6.19048 6.83531 5.31991 8.99145 5.31991 11.6979L3.04649 9.42448L1.53087 10.9401L6.40249 15.8117L11.2741 10.9401L9.75849 9.42448L7.48507 11.6979C7.48507 9.73122 8.11207 8.12088 9.36605 6.86689C10.62 5.6129 12.1582 4.9859 13.9806 4.9859C15.8029 4.9859 17.3411 5.6129 18.5951 6.86689C19.849 8.12088 20.476 9.73122 20.476 11.6979C20.476 12.979 19.9438 14.445 18.8792 16.0959C17.8147 17.7468 16.1818 19.5827 13.9806 21.6035C13.6197 21.2787 13.2859 20.963 12.9792 20.6563L12.059 19.7361C12.1492 19.5556 12.2214 19.3617 12.2755 19.1542C12.3296 18.9467 12.3567 18.7347 12.3567 18.5182C12.3567 17.7604 12.0951 17.1198 11.5718 16.5966C11.0486 16.0733 10.408 15.8117 9.65023 15.8117C8.89243 15.8117 8.2519 16.0733 7.72865 16.5966C7.2054 17.1198 6.94378 17.7604 6.94378 18.5182C6.94378 19.276 7.2054 19.9165 7.72865 20.4397C8.2519 20.963 8.89243 21.2246 9.65023 21.2246C9.79458 21.2246 9.92539 21.2156 10.0427 21.1976C10.1599 21.1795 10.2817 21.1524 10.408 21.1164C10.9313 21.6576 11.4861 22.208 12.0725 22.7673C12.6589 23.3266 13.2949 23.895 13.9806 24.4724Z" fill="white"/>
</g>
</svg>
