<svg width="27" height="27" viewBox="0 0 27 27" fill="none" xmlns="http://www.w3.org/2000/svg">
<g clip-path="url(#clip0_1_20035)">
<path d="M6.25095 14.4871C6.20765 14.1623 6.18599 13.8268 6.18599 13.4695C6.18599 13.1231 6.20765 12.7766 6.26178 12.4519L4.06414 10.7414C3.86927 10.5898 3.81514 10.2975 3.93423 10.081L6.01278 6.48685C6.14269 6.24868 6.41334 6.1729 6.6515 6.24868L9.23888 7.28796C9.78017 6.87658 10.3539 6.53015 10.9927 6.27034L11.3824 3.52058C11.4257 3.26076 11.6422 3.07672 11.902 3.07672H16.0591C16.319 3.07672 16.5246 3.26076 16.5679 3.52058L16.9577 6.27034C17.5964 6.53015 18.181 6.88741 18.7115 7.28796L21.2988 6.24868C21.537 6.16208 21.8076 6.24868 21.9376 6.48685L24.0053 10.081C24.1352 10.3084 24.0919 10.5898 23.8754 10.7414L21.6777 12.4519C21.7319 12.7766 21.7752 13.1339 21.7752 13.4695C21.7752 13.8051 21.7535 14.1623 21.6994 14.4871L23.897 16.1976C24.0919 16.3492 24.146 16.6415 24.0269 16.858L21.9484 20.4521C21.8185 20.6903 21.5478 20.7661 21.3097 20.6903L18.7223 19.651C18.181 20.0624 17.6072 20.4088 16.9685 20.6687L16.5788 23.4184C16.5246 23.6782 16.319 23.8623 16.0591 23.8623H11.902C11.6422 23.8623 11.4257 23.6782 11.3932 23.4184L11.0035 20.6687C10.3648 20.4088 9.78016 20.0624 9.2497 19.651L6.66233 20.6903C6.42416 20.7769 6.15352 20.6903 6.02361 20.4521L3.94505 16.858C3.81514 16.6198 3.86927 16.3492 4.07496 16.1976L6.25095 14.4871ZM13.9806 17.3668C16.1241 17.3668 17.8779 15.613 17.8779 13.4695C17.8779 11.326 16.1241 9.57221 13.9806 9.57221C11.8371 9.57221 10.0833 11.326 10.0833 13.4695C10.0833 15.613 11.8371 17.3668 13.9806 17.3668Z" fill="white"/>
</g>
<defs>
<clipPath id="clip0_1_20035">
<rect width="25.9819" height="25.9819" fill="white" transform="matrix(-1 0 0 1 26.9715 0.478516)"/>
</clipPath>
</defs>
</svg>
